<svg xmlns="http://www.w3.org/2000/svg" xmlns:xlink="http://www.w3.org/1999/xlink" width="51" height="48" viewBox="0 0 51 48"><defs><path id="a" d="M1508 269.7c-1.06 2.25-5.73 13.04-6.37 14.03l-.2.35c-.62 1.06-1.28 1.88-3.54 1.88h-21.57c.45 1.37 1.39 3.07 3.35 3.07h18.67a1 1 0 1 1 0 2h-18.67c-2.77 0-4.8-2.17-5.55-5.5-.42-1.83-5.47-18.75-5.83-20.07a2.51 2.51 0 0 0-2.17-1.45h-4.6a1 1 0 0 1 0-2h4.6c1.72 0 3.33.1 4.03 1.72l.05.13c.2.73 4.38 15.59 5.58 20.1h22.1c1.3 0 1.43-.23 1.82-.89l.25-.4c.59-.94 5.23-11.67 6.21-13.75.42-1.08.34-1.66.23-1.83-.08-.1-.32-.17-.64-.17-2.17.03-29.62 0-30.58 0a1 1 0 0 1 0-2c.24 0 28.4.03 30.56 0 1.32 0 1.98.56 2.3 1.04.6.87.6 2.13-.03 3.75zm-28.86 22.32a4.68 4.68 0 1 1-.01 9.35 4.68 4.68 0 0 1 0-9.35zm0 7.42a2.75 2.75 0 1 0 0-5.51 2.75 2.75 0 0 0 0 5.5zm19-7.42a4.68 4.68 0 1 1-.01 9.35 4.68 4.68 0 0 1 0-9.35zm0 7.42a2.75 2.75 0 1 0 0-5.51 2.75 2.75 0 0 0 0 5.5z"/><path id="b" d="M1489.5 257a12.5 12.5 0 1 1 0 25 12.5 12.5 0 0 1 0-25z"/></defs><g transform="translate(-1459 -255)"><use fill="#333" xlink:href="#a"/></g><g transform="translate(-1459 -255)"><use fill="#e30613" xlink:href="#b"/></g></svg>