<svg xmlns="http://www.w3.org/2000/svg" xmlns:xlink="http://www.w3.org/1999/xlink" width="46" height="46" viewBox="0 0 46 46"><defs><path id="a" d="M1354 301a21.52 21.52 0 0 1-21.5-21.5c0-11.86 9.64-21.5 21.5-21.5 11.85 0 21.5 9.64 21.5 21.5s-9.65 21.5-21.5 21.5zm13.27-7.25c-1.08-.68-2.4-.98-4.2-1.43-2.1-.52-4.91-.9-4.67-3.33a6.65 6.65 0 0 1-6.73 1.11c-.73-.3-1.22-.91-1.75-.87.15 2.36-2.72 2.62-4.67 3.09-1.9.46-3.26.82-4.34 1.59a19.4 19.4 0 0 0 26.36-.16zm-11.8-26.3c-6.54-.57-9.74 3.9-8.8 10.45-.25.11-.63.1-.7.4.01 1.96.38 3.57 1.82 4.12.71 3.22 2.99 7 7.05 6.5 3.27-.41 5.07-3.6 5.78-6.5 1.38-.56 1.88-2.4 1.74-4.2-.03-.32-.52-.16-.7-.32 1.17-5.13-1.8-10.08-6.19-10.46zM1354 260a19.52 19.52 0 0 0-19.5 19.5c0 5.08 1.97 9.7 5.16 13.17.36-.32.74-.6 1.15-.83 2.09-1.1 4.82-.96 7.37-2.21v-2.22c-1.03-.93-1.2-2.47-1.9-3.73-.42-.75-1.08-1.18-1.43-1.98a6.56 6.56 0 0 1-.63-3.33c.07-.65.48-1.07.55-1.66.1-.82-.07-1.67 0-2.46a9.38 9.38 0 0 1 8.09-8.55h2.69c4.61.76 7.77 4.17 8.08 9.19.04.59-.17 1.24-.08 1.9.1.62.6 1.15.64 1.82a6.6 6.6 0 0 1-2.14 5.07c-.32 1.54-1.11 2.6-1.83 3.73v2.14c2.14 1.26 5.02 1.17 7.14 2.22.43.2.8.46 1.14.73 3.1-3.46 5-8 5-13 0-10.75-8.75-19.5-19.5-19.5z"/></defs><g transform="translate(-1331 -256)"><use fill="#333" xlink:href="#a"/></g></svg>