<svg xmlns="http://www.w3.org/2000/svg" xmlns:xlink="http://www.w3.org/1999/xlink" width="14" height="16" viewBox="0 0 14 16"><defs><path id="a" d="M1568 739h3v3h-3z"/><path id="b" d="M1568 744h3v3h-3z"/><path id="c" d="M1568 749h3v3h-3z"/><path id="d" d="M1572 739h3v3h-3z"/><path id="e" d="M1572 744h3v3h-3z"/><path id="f" d="M1572 749h3v3h-3z"/><path id="g" d="M1576 739h3v3h-3z"/><path id="h" d="M1576 744h3v3h-3z"/><path id="i" d="M1576 749h3v3h-3z"/></defs><g transform="translate(-1566 -737)"><use fill="#dfdede" xlink:href="#a"/></g><g transform="translate(-1566 -737)"><use fill="#dfdede" xlink:href="#b"/></g><g transform="translate(-1566 -737)"><use fill="#dfdede" xlink:href="#c"/></g><g transform="translate(-1566 -737)"><use fill="#dfdede" xlink:href="#d"/></g><g transform="translate(-1566 -737)"><use fill="#dfdede" xlink:href="#e"/></g><g transform="translate(-1566 -737)"><use fill="#dfdede" xlink:href="#f"/></g><g transform="translate(-1566 -737)"><use fill="#dfdede" xlink:href="#g"/></g><g transform="translate(-1566 -737)"><use fill="#dfdede" xlink:href="#h"/></g><g transform="translate(-1566 -737)"><use fill="#dfdede" xlink:href="#i"/></g></svg>