<svg xmlns="http://www.w3.org/2000/svg" xmlns:xlink="http://www.w3.org/1999/xlink" width="46" height="43" viewBox="0 0 46 43"><defs><path id="a" d="M560.52 1150.98c-1.19 0-1.93-.77-2.58-1.55-.8-.96-1.36-1.42-2.33-1.42H548c-.55 0-1 .1-1-.44v-15.15a1 1 0 0 1 1.04-1c.47 0 2.9-.05 5.74-.96 4.58-1.46 11.32-7.17 11.22-11.76-.04-1.71.05-2.83 0-3.6-.08-1.67-.1-2.07.63-2.92.5-.6 2.12-1.47 3.79-1.47 1.76 0 4.78 1 5.19 7.67v.11a62.38 62.38 0 0 1-.47 5.5l7.23.02h4.92c2.4 0 4.33 1.57 4.33 3.96 0 1.2-.5 2.34-1.36 3.14a5.46 5.46 0 0 1-.78 7.72 5.48 5.48 0 0 1-2.6 6.5c.13.45.19.45.19.93 0 3-2.45 4.73-5.45 4.73h-2.92l-17.18-.01zm-11.52-5h6.6c1.99 0 3.08 1.09 3.88 2.04.37.45.79.96 1.04.96h20.1c1.9 0 3.45-.82 3.45-2.72 0-.53-.12-.57-.35-1.04a1 1 0 0 1-.08-.24h-5.8a1 1 0 1 1 0-2h6.97a1 1 0 0 1 .66.24 3.42 3.42 0 0 0 .92-4.22h-8.62a1 1 0 1 1 0-2h9.74a3.45 3.45 0 0 0 .52-4.17 1 1 0 0 1-.49.13h-9.77a1 1 0 0 1 0-2h8.92a1 1 0 0 1 .58-.88 2.34 2.34 0 0 0 1.35-2.11c0-1.29-1.04-1.96-2.33-1.96h-4.96l-8.46-.07a1 1 0 0 1-.9-1.32s.42-2.05.64-6.18c-.17-2.62-.86-5.73-3.2-5.73-1.06 0-2.12.62-2.27.78l-.16.2c-.04.12 0 .67.03 1.3.04.78-.05 1.92-.01 3.66.12 5.74-7.4 12.06-12.6 13.72-2.2.7-4.34.93-5.4 1.01z"/></defs><g transform="translate(-546 -1109)"><use fill="#fff" xlink:href="#a"/></g></svg>